<svg xmlns="http://www.w3.org/2000/svg" viewBox="0 0 24.85 24.85"><defs><style>.cls-1,.cls-2{fill:none;stroke-miterlimit:10;}.cls-1{stroke:#97ad9a;}.cls-2{stroke:#000;stroke-width:0.42px;}</style></defs><title>grow</title><g id="Layer_2" data-name="Layer 2"><g id="Layer_1-2" data-name="Layer 1"><circle class="cls-1" cx="12.42" cy="12.42" r="11.92"/><path class="cls-2" d="M13.08,14.93s-.47-1.38-1.18-1.69A3.78,3.78,0,0,0,10.2,13c-.1,0-.07.79,0,1A3.08,3.08,0,0,0,11,15.38a2.68,2.68,0,0,0,1.52.56c.5,0,.6-.1.6-.1"/><path class="cls-2" d="M13.13,11.79a3.63,3.63,0,0,1,.68-.85,3.07,3.07,0,0,1,1-.54A6.33,6.33,0,0,1,16,10.27a2.07,2.07,0,0,1-.06,1.2,3.17,3.17,0,0,1-.85,1.32,3.15,3.15,0,0,1-1.53.49c-.43-.06-.47-.14-.47-.14"/><line class="cls-2" x1="10.54" y1="17.75" x2="15.47" y2="17.81"/><path class="cls-2" d="M13.13,10.13A3.13,3.13,0,0,1,11.58,10a2.88,2.88,0,0,1-1.44-1.55,9.12,9.12,0,0,1-.26-1.37,2.17,2.17,0,0,1,1.7.14A2.53,2.53,0,0,1,13.09,9c.08.49,0,3.66,0,6,0,1.51-.06,2.7-.06,2.7"/></g></g></svg>