<svg xmlns="http://www.w3.org/2000/svg" viewBox="0 0 24.85 24.85"><defs><style>.cls-1{fill:#97ad9a;}.cls-2,.cls-3{fill:none;stroke-miterlimit:10;}.cls-2{stroke:#fff;stroke-width:0.4px;}.cls-3{stroke:#d2dfce;}</style></defs><title>grow-filled</title><g id="Layer_2" data-name="Layer 2"><g id="Layer_3" data-name="Layer 3"><circle class="cls-1" cx="12.42" cy="12.42" r="8.15"/><path class="cls-2" d="M12.92,14.67s-.47-1.38-1.19-1.69a3.77,3.77,0,0,0-1.7-.26c-.09,0-.06.79,0,1a3.12,3.12,0,0,0,.78,1.38,2.66,2.66,0,0,0,1.52.56c.5,0,.6-.1.6-.1"/><path class="cls-2" d="M13,11.53a3.37,3.37,0,0,1,.68-.85,3.07,3.07,0,0,1,1-.54A6.26,6.26,0,0,1,15.86,10a2.07,2.07,0,0,1-.06,1.2A3.27,3.27,0,0,1,15,12.53a3.15,3.15,0,0,1-1.54.49C13,13,13,12.88,13,12.88"/><line class="cls-2" x1="10.38" y1="17.49" x2="15.31" y2="17.55"/><path class="cls-2" d="M13,9.87a3.13,3.13,0,0,1-1.55-.13A2.86,2.86,0,0,1,10,8.19a9.12,9.12,0,0,1-.26-1.37,2.17,2.17,0,0,1,1.7.14,2.57,2.57,0,0,1,1.51,1.79c.08.49,0,3.66,0,6,0,1.51-.06,2.7-.06,2.7"/><circle class="cls-3" cx="12.42" cy="12.42" r="11.92"/></g></g></svg>